<svg xmlns="http://www.w3.org/2000/svg" width="128" height="128" viewBox="0 0 512 512" class="covidSvg1"><path class="path" fill="#ff0000" stroke="#000000" stroke-width="8" d="M73.9 0L86.1 0C101.9 1.3 117.3 7.2 129.7 17.2 144.9 29.2 155.5 46.8 158.7 65.9 162.9 88.5 156.4 112.6 141.9 130.4 155.1 143.6 168.2 156.8 181.4 169.9 185.8 161 192.4 151.7 202.8 149.6 210.9 147.2 219.5 150 227.7 147.7 235.2 144.8 241.2 138.7 249.3 137.1 257.4 134.6 266 137.4 273 141.6 275 129.2 277.1 116.9 279.2 104.5 274.6 101.1 270.7 96.6 269.1 91 266.5 82.5 269.2 72.7 275.7 66.7 281.9 60.8 291.4 58.6 299.5 61.4 306.8 63.7 312.7 69.8 315 77.1 317.7 85.6 315.1 95.5 308.6 101.5 304.9 105.2 299.8 107.1 294.8 108.1 292.5 121.5 290.3 135 288.1 148.4 295.7 148.5 303.5 147.5 310.9 150 316.6 151.5 321.1 155.7 324.7 160.3 328.6 165.3 330.5 171.5 334.8 176.2 338.2 179.8 342.8 181.7 347 184.2 350.4 186.1 353.4 188.6 356.4 191.1 368.3 184.6 380.1 178 392 171.4 387.6 159.5 386.8 146.3 390.1 134.1 394.5 117.3 406.3 102.7 421.8 94.8 435.8 87.6 452.6 86.1 467.6 90.7 480.8 94.6 492.6 103.2 500.5 114.5 509.1 126.8 513 142.2 511.2 157 509.4 173.8 500.3 189.6 486.6 199.7 474 209.1 457.7 213.4 442 211.4 424.9 209.4 409.1 199.7 399.1 185.7 387.1 192.3 375.1 199 363.1 205.7 363.8 211.7 363.3 217.9 363.8 224 364.3 230.3 368.6 235.3 371.5 240.6 375.1 247.5 377.2 255.8 374.7 263.4 373 270.9 367.4 276.6 364.8 283.7 362.5 290.8 364.5 298.3 363.3 305.5 362.4 310.3 361 315.2 357.8 319 355.2 322.3 351.7 324.9 348.1 327.2 365.9 343 383.7 359 401.5 374.9 410.8 369.5 422.7 368.6 432.3 373.7 445.4 380 452.9 395.9 449.1 410 445.7 424.2 431.7 435 417 434.3 402.8 434.1 389.7 423.2 386.8 409.3 384.9 401.5 386.5 393.3 390.2 386.2 371.6 369.6 352.9 353.1 334.3 336.5 329.6 342.8 327 350.6 321 356 316.1 361.1 308.9 363.1 302.1 363.6 296.4 363.9 290.7 362.9 285.1 364.3 279.9 365.8 275.6 369.3 270.8 371.8 264.9 374.8 258.2 376.5 251.5 375.6 250.5 389.6 249.5 403.5 248.5 417.5 261.7 421.2 273.2 430.6 279.1 443 285 454.9 285.5 469.2 280.5 481.6 275.7 494 265.3 504.1 252.9 508.8 240.5 513.5 226.1 512.7 214.3 506.7 202.7 500.9 193.7 490.2 190 477.9 185.5 463.4 188.5 446.8 197.8 434.8 205.9 423.9 219 417.1 232.5 415.9 233.6 400.2 235.1 384.6 235.8 368.9 230.6 364.5 223.6 363.2 217 363.7 207.7 364.2 197.1 362.7 190.5 355.4 185.1 350.4 182.8 343.2 178.5 337.4 174.7 332.3 168.6 329.9 163.4 326.6 159.5 324.2 156.2 321 153.2 317.6 137.7 325.6 122.2 333.5 106.8 341.6 108.8 350.8 108.3 360.7 104.5 369.4 99.2 382.2 87.5 392.1 74 395.1 61.1 398.2 46.8 394.9 36.5 386.5 27.2 379.2 21.2 367.9 20.2 356.1 19 343.3 23.9 330 33.1 321 42.5 311.5 56.5 306.8 69.8 308.7 81.9 310.2 92.9 317.1 100.1 326.9 116.3 318.7 132.4 310.4 148.6 302.1 148.5 296.4 149.2 290.6 147.9 285 145.8 278.4 140.6 273.2 138.4 266.6 136.3 261.2 135.3 255.1 137.1 249.4 138.6 242.3 143.3 236.7 146.5 230.4 149.7 224.4 148 217.4 148.3 211 148.7 204 150.5 196.6 155.6 191.5 159.6 187 164.8 183.9 170.1 181.2 157 168 143.8 154.9 130.6 141.7 118.2 151.7 103 158.1 87.1 159.4 66.5 161.3 45.3 154.8 29.4 141.7 12.1 127.7 1.4 106.2 0 84.1L0 76.5C0.9 56.7 9.2 37.4 23.3 23.4 36.7 9.8 55 1.5 73.9 0M70.5 16.8C56.6 18.8 43.5 25.6 33.8 35.8 23.4 46.6 17 61.1 16.2 76 15.2 90.7 19.6 105.7 28.3 117.6 37.7 130.6 52.2 139.9 68 142.8 83.2 145.8 99.6 142.9 112.9 134.8 124.9 127.7 134.4 116.5 139.5 103.5 145.2 89.1 145.4 72.5 140.1 58 135.2 44.6 125.6 32.9 113.4 25.5 100.8 17.6 85.3 14.5 70.5 16.8M289.4 76.4C283.6 78.1 282.1 86.5 286.9 90.2 291.1 94 298.6 91.5 299.8 86 301.6 80.1 295.1 74.1 289.4 76.4M441.5 104.8C423.8 107.9 408.8 122.4 405.1 140.1 402.3 152.7 405.1 166.6 412.9 177.1 421.1 188.5 434.8 195.8 449 196 462.6 196.4 476.1 190.2 484.9 179.9 493.4 170.1 497.4 156.6 495.6 143.8 493.9 130.9 486.3 118.8 475.4 111.7 465.6 105.1 453.1 102.6 441.5 104.8M253.4 152.5C247.3 154 242.6 158.4 237 160.9 230.5 164.2 223.1 164.8 216 164.4 212 164.2 207.8 164.3 204.1 166 197.9 170.3 196.1 178 191.6 183.6 187.4 189.4 181.4 193.7 175 197 172.4 198.3 170 199.9 167.9 201.9 164.4 204.8 164.4 209.8 164.3 214 164.8 221.5 164.5 229.4 161.2 236.3 158.4 243 152.8 248.5 152.1 256 152.7 263.2 158 268.7 160.9 275 164.2 281.4 164.8 288.8 164.4 295.9 164.2 299.9 164.3 304.1 166 307.8 170 313.9 177.5 315.7 183 320 188.9 324.1 193.4 330 196.6 336.4 198.1 339.4 199.9 342.2 202.4 344.6 205 347.4 209.3 347.5 212.9 347.6 220.6 347.4 228.5 347.2 235.6 350.5 242.6 353.3 248.3 359.2 256 359.9 260.6 359.5 264.8 357.1 268.6 354.7 273.9 351.3 279.7 348.4 286.1 347.9 292.1 346.9 298.3 348.4 304.3 347.2 309.9 346.4 313 340.9 315.4 336.4 318.2 330.1 322.6 324.4 328.1 320.2 333.1 316.3 339.6 314.7 344.1 310.1 347.6 307.2 347.6 302.2 347.7 298 347.2 290.3 347.5 282.2 351.1 275.1 353.9 268.7 359.3 263.2 359.9 256 359.3 248.8 354 243.3 351.1 237 347.8 230.6 347.2 223.2 347.6 216.1 347.8 212 347.7 207.8 346 204.1 341.8 197.9 334 196.1 328.4 191.6 323.7 188.3 320.1 183.7 317.2 178.8 315 175.1 313.3 171 310.2 167.9 307 164.2 301.5 164.4 297 164.4 288.3 165 279.3 163.8 271.8 159.2 266.1 156.2 260.3 150.9 253.4 152.5M58.4 324.6C45.4 327 35.2 339.8 36 353.1 36.2 368 50.2 381 65.1 380 80.4 379.7 93.5 365.1 91.9 349.9 91.2 333.8 74.3 320.8 58.4 324.6M415.2 386.2C409.5 387.3 404.6 391.6 402.8 397.1 399.7 405.7 405.7 415.8 414.5 417.6 424.1 420.1 434.3 411.8 434 402 434.3 392.4 424.6 384.3 415.2 386.2M229.5 432.7C221.8 434.3 214.8 438.8 210.2 445.1 201.8 456.2 202 472.6 210.6 483.5 219.4 495.3 236.6 499.5 249.8 492.9 264.1 486.4 271.7 468.5 266.3 453.7 261.5 438.8 244.8 429.1 229.5 432.7Z" class="covidSvg2" fill="#ff0000" stroke="#000000" stroke-width="8"/><path d="M265.4 190.6C280 186.2 296.6 196.2 300 211 303.2 223 297 236.3 286.3 242.2 278.8 246.3 269.5 246.8 261.7 243.4 251.8 239 244.7 228.8 244.8 218 244.4 205.5 253.5 193.8 265.4 190.6M268.3 206.5C263.4 208.4 260.1 213.8 260.8 219.1 261.4 225.4 267.7 230.4 274 229.6 280.9 229.1 286.2 221.8 284.5 215.1 283.2 208.1 274.9 203.6 268.3 206.5Z" class="covidSvg3" fill="#ff0000" stroke="#000000" stroke-width="8"/><path d="M211.4 252.5C223 249.9 235.6 257.6 238.9 269 241.9 277.7 238.8 287.8 231.9 293.9 225.6 299.5 216.1 301.7 208.1 298.6 199.3 295.6 192.9 287.2 192.1 278.1 190.9 266.3 199.7 254.6 211.4 252.5M213.3 268.4C209.5 269.7 207.2 274.1 208.2 277.9 209.2 282.1 213.8 284.9 218 283.8 222.1 282.8 225 278.2 223.8 274 222.7 269.6 217.6 266.8 213.3 268.4Z" class="covidSvg4" fill="#ff0000" stroke="#000000" stroke-width="8"/><path d="M278.4 271.5C290.6 267.4 304.9 275.4 308.2 287.8 312.3 300.1 304 314.5 291.5 317.6 283 320.2 273.3 317.1 267.5 310.5 262 304.5 259.7 295.4 262.3 287.6 264.5 280 270.8 273.7 278.4 271.5M281.4 287.4C275.9 290.1 275.9 298.9 281.4 301.5 286.6 304.7 293.9 300 293.2 294 293.1 288.4 286.2 284.5 281.4 287.4Z" class="covidSvg5" fill="#ff0000" stroke="#000000" stroke-width="8"/></svg>